<svg width="40" height="40" viewBox="0 0 40 40" fill="none" xmlns="http://www.w3.org/2000/svg">
<rect width="40" height="40" rx="5" fill="#E0E0E0"/>
<path d="M26.862 19.6827C26.8513 17.7162 27.7407 16.232 29.5411 15.139C28.5337 13.6976 27.012 12.9046 25.0027 12.7493C23.1006 12.5992 21.0216 13.8584 20.2608 13.8584C19.4571 13.8584 17.6139 12.8028 16.1672 12.8028C13.1774 12.8511 10 15.1872 10 19.9399C10 21.3437 10.2572 22.7939 10.7716 24.2906C11.4574 26.2571 13.9329 31.0794 16.5155 30.999C17.8657 30.9669 18.8195 30.0399 20.5769 30.0399C22.2808 30.0399 23.1649 30.999 24.6705 30.999C27.2746 30.9615 29.5143 26.5786 30.168 24.6068C26.6745 22.9618 26.862 19.7845 26.862 19.6827V19.6827ZM23.8293 10.8846C25.2921 9.14861 25.1581 7.56796 25.1152 7C23.8239 7.07501 22.329 7.87873 21.4771 8.86998C20.5394 9.93089 19.9875 11.2436 20.1054 12.7225C21.5039 12.8296 22.7791 12.1116 23.8293 10.8846V10.8846Z" fill="#2B2B2B"/>
</svg>
